<?xml version="1.0" encoding="UTF-8"?>
<svg id="Layer_1" data-name="Layer 1" xmlns="http://www.w3.org/2000/svg" viewBox="0 0 1080 1080">
  <defs>
    <style>
      .cls-1 {
        fill: #c00d0d;
      }

      .cls-1, .cls-2 {
        fill-rule: evenodd;
      }

      .cls-2 {
        fill: #b2b2b2;
      }
    </style>
  </defs>
  <g>
    <path class="cls-2" d="m923.58,552.94c-1.48-1.34-3.14-2.59-4.95-3.73-8.86-5.54-25.57-4.76-33.39-10.48-3.25-2.41-4.41-6.82-.86-9.69,4.77-3.85,15.17-3,19.74.65,1.35.97,1.75,2.45,2.58,3.81.9,1.46,1.65,2.59,3.44,2.94.8.27,12.52.43,13.93-.15.67-.19,1.2-.57,1.58-1.15.19-.48.29-1.05.29-1.72s-.1-1.29-.29-1.87c-.73-2.53-1.76-4.67-3.16-6.89-2.78-4.31-6.82-7.35-12.13-9.11-7.82-2.61-25.07-3.7-33.96.36-2.78,1.06-5.26,2.44-7.47,4.16-2.2,1.73-3.93,3.97-5.17,6.75-2.15,4.82-2.46,10.75-1.01,15.79,1.24,3.26,3.21,5.84,5.89,7.76,2.3,1.63,4.83,2.85,7.61,3.66,6.56,1.92,12.91,3.37,19.53,4.96,2.01.48,3.92,1.1,5.74,1.86,1.34.58,2.51,1.2,3.52,1.87,3.39,2.27,4.06,6.52,1.94,9.91-.67,1.06-1.56,1.92-2.66,2.58-5.25,3.2-12.72,3.23-18.16.5-2.4-1.2-4.71-2.97-5.74-5.53-.48-.96-.89-1.87-1.22-2.73-.34-.86-1.03-1.48-2.08-1.87-.58-.19-1.24-.29-2.01-.29h-11.2c-.67,0-1.24.1-1.72.29-.67.29-1.15.77-1.44,1.44-.19.57-.24,1.29-.14,2.16.42,3.73,2.27,7.67,4.45,10.62,4.23,5.84,10.54,8.02,17.23,9.91,7.21,1.97,22.88,1.67,29.44-1.29,5.23-1.98,9.9-4.58,13.06-9.33,4.76-7.29,5.81-19.79-1.22-26.13Z"/>
    <path class="cls-2" d="m719.53,571.03v-32.02c0-3.79.15-8.55-1.29-12.06-1.15-2.77-2.78-5.05-4.88-6.82-2.11-1.77-4.62-3.18-7.54-4.23-2.92-1.05-6.18-1.77-9.77-2.16-9.93-1.05-18.13-.54-27.5,2.66-7.96,2.72-13.21,8.63-15.36,16.44-.38,1.52-.79,4.08,1.3,4.59.49.51,13.17.84,15.94.14,1.05-.28,1.74-.85,2.08-1.72.87-2.25,1.87-4.64,3.8-6.18,4.05-3.23,11.63-3.78,16.51-2.15,5.65,1.93,8.8,9.57,4.45,13.93-1.34,1.34-2.85,2.18-4.53,2.51-6.79,1.36-21.45,2.62-26.78,4.67-3.26,1.06-5.94,2.3-8.04,3.73-2.11,1.43-3.97,3.54-5.6,6.32-3.08,5.51-2.92,14.05-.43,19.81,1.15,2.78,2.7,5,4.66,6.68,8.96,7.65,25.29,7.33,35.39,2.66.58-.29,1.15-.57,1.72-.86.75-.37,2.23-1.25,2.94-1.72.43-.29.88-.52,1.36-.71.48-.1.86-.07,1.15.07.87.43,1.68,1.44,2.08,2.3.33.72.84,1.27,1.51,1.65.48.38,1.13.6,1.94.65.81.05,1.65.07,2.51.07h10.05c1.58,0,3.61-.69,3.52-2.59-.16-3.41-1.22-6.57-1.22-10.12v-5.53Zm-20.25-8.33c-.09,1.68-.31,2.88-.72,4.31-.77,2.49-1.87,4.57-3.3,6.24-1.43,1.68-3.4,2.9-5.88,3.66-1.53.48-3.18.79-4.95.94-1.77.14-3.45.07-5.02-.22-1.58-.29-3.04-.74-4.38-1.36-2.63-1.22-4.26-3.68-4.59-6.54-.39-3.06.12-5.46,1.51-7.18,1.77-2.2,4.29-3.8,7.1-4.52,4.49-1.11,11.72-1.81,17.24-3.23.96,0,1.67.19,2.15.58,1.25.95.86,5.81.86,7.32Z"/>
    <path class="cls-2" d="m915.49,509.94c7.1,0,12.85-5.75,12.85-12.85s-5.75-12.85-12.85-12.85-12.85,5.75-12.85,12.85,5.75,12.85,12.85,12.85Zm0-23.34c5.79,0,10.49,4.7,10.49,10.49s-4.7,10.49-10.49,10.49-10.49-4.7-10.49-10.49,4.7-10.49,10.49-10.49Z"/>
    <path class="cls-2" d="m854.5,537c-1.5-4.09-2.17-5.24-4.45-8.98-2.15-3.51-4.77-6.28-8.19-8.55-2.77-1.91-5.91-3.46-9.4-4.67-6.93-2.37-18.62-2.08-25.35.79-9.86,4.12-16.85,11.15-20.96,21.11-5.39,12.59-3.11,32.28,6.75,42.71,2.39,2.53,5.12,4.76,8.18,6.68,11.57,7.21,31.38,6.26,42.36-1.58,2.68-1.91,5.07-4.45,7.18-7.61.76-1.05,1.43-2.1,2.01-3.16.57-1.06,1.1-2.25,1.58-3.59.93-2.3-.09-3.66-2.44-3.73-1.65,0-3.14-.15-4.88-.15-1.24,0-2.61-.02-4.1-.07-1.99-.06-4.26.42-5.6,2.01-.53.63-1.03,1.27-1.51,1.94-4.44,5.87-17.6,7.54-23.69,3.73-1.92-1.15-3.42-2.47-4.52-3.95-1.1-1.48-2.04-3.38-2.8-5.67-.34-1.02-.96-3.76-.57-4.81.19-.52.38-.88.57-1.07.19-.38.67-.76,1.44-1.15.48-.19,1.03-.29,1.65-.29,13.31,0,26.61.05,39.92.07h3.3c1.1-.04,2.1-.14,3.01-.28.91-.15,1.6-.41,2.08-.79.48-.28.81-.91,1.01-1.87.65-3.28-.73-9.93-1.44-13.21-.29-1.34-.67-2.63-1.15-3.87Zm-18.95,6.03c-.48.77-1.46,1.17-2.95,1.22-1.48.05-2.89.07-4.24.07h-19.81c-1.34,0-2.39-.23-3.16-.72-.48-.38-.79-.86-.94-1.43-.14-.57-.16-1.17-.07-1.8.79-5.27,5.63-9.72,10.48-11.27,3.91-1.56,11.27-.58,14.36,1.36,2.9,1.83,8.69,9.19,6.32,12.56Z"/>
    <path class="cls-2" d="m787.83,516.04c-.48-.48-1.17-.74-2.08-.79-.91-.05-1.89-.07-2.94-.07h-7.03c-2.67,0-5.68-.37-6.89,2.87l-13.22,42.09c-.46,1.24-.91,1.66-1.79,1.69-1.01-.04-1.44-.65-1.78-1.61l-12.72-40.67c-.43-1.77-1.17-2.99-2.23-3.66-.67-.38-1.48-.6-2.44-.65-.96-.05-1.96-.07-3.02-.07h-10.48c-.19.1-.53.14-1.01.14-1.06.29-1.72.77-2.01,1.44-.19.38-.27.79-.21,1.22.05.43.12.79.21,1.08l1.29,3.88,19.81,57.87c.38,1.25.81,2.44,1.29,3.59.29.86.57,1.65.86,2.37.29.72.76,1.32,1.44,1.79.76.38,1.65.58,2.65.58,4.02,0,15.11.59,17.45-.29,1.05-.38,1.77-1.03,2.16-1.94,2.75-6.58,4.49-13.1,6.89-19.74l16.44-49.03c.14-.91-.07-1.6-.65-2.08Z"/>
    <path class="cls-2" d="m633.26,515.75c-5.52-2.62-16.51-3.26-22.4-1.29-3.16,1.15-6.03,2.68-8.61,4.59-.77.48-1.49,1.13-2.16,1.94-.67.82-1.68,1.32-2.58,1.08-1.7-.6-1.14-2.88-2.08-5.17-.24-.57-.7-1-1.36-1.29-.57-.19-1.22-.31-1.94-.36-.72-.05-1.46-.07-2.23-.07h-6.03c-1.32,0-5.22-.08-6.03,1.15-.48.57-.74,1.29-.79,2.15-.05.86-.07,1.82-.07,2.87v58.44c0,1.49-.08,3.84.12,5.74.22,2.13.7,3.38,3.04,3.59,1.05.1,2.1.14,3.16.14h7.18c1.53,0,2.82-.1,3.88-.29,1.05-.19,1.82-.81,2.3-1.87.29-.57.43-1.29.43-2.16v-29.29c0-5.26.29-10,.86-14.21.58-4.21,2.39-7.42,5.46-9.62,5.41-3.85,15.5-4.09,19.67,1.87,1.44,2.1,2.3,4.67,2.59,7.68.28,3.02.43,6.29.43,9.84v31.44c0,1.06.02,2.03.07,2.94.05.91.27,1.65.64,2.23.48.67,1.17,1.08,2.09,1.22.91.14,1.94.21,3.08.21h10.05c.76,0,1.44-.1,2.01-.29,1.34-.48,2.03-1.55,2.08-3.23.05-1.67.07-3.42.07-5.24v-40.2c0-4.56-1.35-12.53-3.88-16.51-2.2-3.54-5.22-6.22-9.05-8.04Z"/>
    <path class="cls-2" d="m913.33,498.22h.49c.56,0,.97.05,1.23.15.26.1.5.29.73.56.23.27.66.93,1.28,1.98l1.76,2.93h2.91l-1.47-2.63c-.58-1.05-1.04-1.78-1.38-2.19-.34-.41-.78-.79-1.31-1.13,1.06-.17,1.86-.59,2.39-1.24.53-.66.8-1.5.8-2.51,0-.8-.17-1.5-.53-2.12-.35-.62-.82-1.05-1.4-1.29-.58-.24-1.52-.36-2.81-.36h-5.13v13.47h2.44v-5.63Zm0-5.57h1.9c.99,0,1.58.02,1.78.04.4.08.7.25.92.53.22.28.32.64.32,1.1,0,.4-.08.74-.25,1.01-.17.27-.39.46-.68.57-.29.11-1.02.16-2.19.16h-1.8v-3.42Z"/>
  </g>
  <g>
    <path class="cls-1" d="m567.36,534.14c-11.96-24.72-45.24-29.19-63.67-8.48-15.34,17.8-11.29,47.94,8.53,60.61,9.65,6.02,23.7,7.03,35.66,2.16,2.78-1.13,5.47-2.57,7.99-4.31,14.53-10.69,19.24-33.96,11.49-49.97Zm-18.81,31.01c-1.05,2.39-2.35,4.4-3.88,6.03-1.53,1.63-3.54,2.92-6.03,3.88-3.79,1.63-11.27,1.37-14.79-1.15-2.39-1.44-4.14-3.04-5.24-4.81-4.9-7.87-4.64-16.07-3.44-24.77.78-5.91,4.4-11.9,9.98-14.36,4.19-2.03,10.34-1.55,14.22-.29,12.05,4.82,13.3,25.18,9.19,35.47Z"/>
    <path class="cls-1" d="m496.28,530.54c.76-1.54.98-13.77-.43-15.65-.48-.67-1.13-1.1-1.94-1.29-4.46-1.06-10.91.99-14.79,3.45-1.72,1.08-5.14,3.55-6.32,5.24-.71,1.03-3.21,3.5-4.02,1.22-.24-.67-.4-1.42-.5-2.23-.09-.81-.17-1.65-.21-2.51-.05-.87-.22-1.53-.5-2.01-.48-.76-1.15-1.22-2.01-1.36-.86-.14-1.87-.22-3.02-.22h-7.32c-1.34,0-2.49.1-3.45.29-.96.19-1.67.67-2.15,1.43-.38.58-.58,1.32-.58,2.22v63.68c0,.96.02,1.89.08,2.8.05,1.03.53,2.67,1.65,3.02,3.1.93,14.08.98,16.59.14,1.29-.43,1.68-2.02,1.79-3.23.1-1.05.14-2.2.14-3.45,0-6.35-.39-24.16.14-30.3.52-5.02,1.51-12.65,8.62-16.87,7.79-4.64,10.49-1.46,16.58-3.09.72-.19,1.27-.62,1.66-1.29Z"/>
    <path class="cls-1" d="m436.69,528.67c1.92,0,3.64-.05,5.17-.14,1.53-.09,2.54-.91,3.02-2.44.43-1.08.09-6.49-.07-7.9-.15-1.24-.74-2.11-1.8-2.58-.48-.19-1-.29-1.58-.29h-1.72c-1.63,0-3.33-.02-5.1-.07-1.77-.05-2.99-.5-3.66-1.36-.38-.48-.62-1.03-.72-1.65-.09-.62-.14-1.31-.14-2.08v-13.35c0-.67-.1-1.24-.28-1.72-.48-1.06-1.27-1.66-2.37-1.8-1.1-.14-2.37-.22-3.8-.22-1,0-10.65-.13-11.2.14-.96.29-1.68.91-2.16,1.87-.19.57-.29,1.29-.29,2.15v11.35c0,.86-.02,1.72-.07,2.58-.05.86-.22,1.63-.5,2.29-.48.96-1.34,1.51-2.58,1.66-1.25.14-2.58.21-4.02.21-1.75,0-4.44-.14-4.88,2.3-.47,2.55-.53,6.89.28,9.33.19.58.67,1.01,1.44,1.29,1.15.48,2.53.62,4.16.43,1.63-.19,2.97-.05,4.02.43,2.64,1.06,2.15,4.23,2.15,6.46v34.46c0,8.09,1.06,14.55,9.62,17.95,2.12.86,5.83,1.72,8.18,1.72,2.79,0,12.6.59,14.79-.29,1.53-.57,2.32-1.7,2.37-3.37.05-1.68.07-3.52.07-5.53v-2.8c0-.91-.19-1.65-.58-2.23-.48-.67-1.1-1.05-1.86-1.15-3.69-.45-4.76.18-8.55-.93-.81-.24-1.46-.65-1.94-1.22-2.3-2.91-2.01-7.35-2.01-10.91v-25.7c.02-2.05-.26-3.48.79-5.38,1.01-1.88,4.05-1.51,5.81-1.51Z"/>
    <path class="cls-1" d="m388.02,549.21c-8.86-5.54-25.57-4.76-33.38-10.48-3.25-2.41-4.41-6.82-.86-9.69,4.77-3.85,15.17-3,19.74.65,1.35.97,1.75,2.45,2.58,3.81.9,1.46,1.65,2.59,3.44,2.94.8.27,12.52.43,13.93-.15.67-.19,1.2-.57,1.58-1.15.19-.48.29-1.05.29-1.72s-.1-1.29-.29-1.87c-.73-2.53-1.76-4.67-3.16-6.89-2.78-4.31-6.82-7.35-12.13-9.11-7.82-2.61-25.07-3.7-33.96.36-2.78,1.06-5.26,2.44-7.47,4.16-2.2,1.73-3.93,3.97-5.17,6.75-2.15,4.82-2.46,10.75-1.01,15.79,1.24,3.26,3.21,5.84,5.89,7.76,2.3,1.63,4.83,2.85,7.61,3.66,6.56,1.92,12.91,3.37,19.53,4.96,2.01.48,3.92,1.1,5.74,1.86,1.34.58,2.51,1.2,3.52,1.87,3.39,2.27,4.06,6.52,1.94,9.91-.67,1.06-1.56,1.92-2.66,2.58-5.25,3.2-12.72,3.23-18.16.5-2.4-1.2-4.71-2.97-5.74-5.53-.48-.96-.88-1.87-1.22-2.73-.34-.86-1.03-1.48-2.08-1.87-.58-.19-1.24-.29-2.01-.29h-11.2c-.67,0-1.24.1-1.72.29-.67.29-1.15.77-1.44,1.44-.19.57-.24,1.29-.14,2.16.42,3.73,2.27,7.67,4.45,10.62,4.23,5.84,10.54,8.02,17.23,9.91,7.21,1.97,22.88,1.67,29.44-1.29,5.23-1.98,9.9-4.58,13.06-9.33,4.76-7.29,5.81-19.79-1.22-26.13-1.48-1.34-3.14-2.59-4.95-3.73Z"/>
    <path class="cls-1" d="m325.53,571.03v-32.02c0-3.79.15-8.55-1.29-12.06-1.15-2.77-2.78-5.05-4.88-6.82-2.11-1.77-4.62-3.18-7.54-4.23-2.92-1.05-6.18-1.77-9.77-2.16-9.93-1.05-18.13-.54-27.5,2.66-7.96,2.72-13.21,8.63-15.36,16.44-.38,1.52-.79,4.08,1.3,4.59.49.51,13.17.84,15.94.14,1.05-.28,1.74-.85,2.08-1.72.87-2.25,1.87-4.64,3.8-6.18,4.05-3.23,11.63-3.78,16.51-2.15,5.65,1.93,8.8,9.57,4.45,13.93-1.34,1.34-2.85,2.18-4.53,2.51-6.79,1.36-21.45,2.62-26.78,4.67-3.25,1.06-5.94,2.3-8.04,3.73-2.11,1.43-3.97,3.54-5.6,6.32-3.08,5.51-2.92,14.05-.43,19.81,1.15,2.78,2.7,5,4.66,6.68,8.96,7.65,25.29,7.33,35.39,2.66.58-.29,1.15-.57,1.72-.86.75-.37,2.23-1.25,2.94-1.72.43-.29.88-.52,1.36-.71.48-.1.86-.07,1.15.07.88.43,1.68,1.44,2.08,2.3.33.72.84,1.27,1.51,1.65.48.38,1.13.6,1.94.65.81.05,1.65.07,2.51.07h10.05c1.58,0,3.61-.69,3.52-2.59-.16-3.41-1.22-6.57-1.22-10.12v-5.53Zm-20.25-8.33c-.09,1.68-.31,2.88-.72,4.31-.77,2.49-1.87,4.57-3.3,6.24-1.43,1.68-3.4,2.9-5.88,3.66-1.53.48-3.18.79-4.95.94-1.77.14-3.45.07-5.02-.22-1.58-.29-3.04-.74-4.38-1.36-2.63-1.22-4.27-3.68-4.59-6.54-.39-3.06.12-5.46,1.51-7.18,1.39-1.72,3.09-3.02,5.1-3.87.67-.29,1.34-.5,2.01-.65,4.62-1.36,11.72-1.81,17.23-3.23.96,0,1.67.19,2.15.58,1.24.95.86,5.81.86,7.32Z"/>
    <path class="cls-1" d="m251.44,561.55c-.63-.73-13.77-1.25-15.94-.29-1.05.48-1.72,1.13-2.01,1.94-1.92,5.42-3.63,9.09-9.33,11.56-4.14,1.39-6.53,1.33-10.84.58-1.45-.25-3.76-1.39-4.95-2.3-3.44-2.62-5.51-6.38-6.75-10.63-1.65-5.77-1.64-16.98,1.15-23.12,1.06-2.49,2.44-4.62,4.16-6.39,3.02-3.1,7.09-4.53,11.35-4.53,6.32,0,10.37,2.29,13.35,7.76.48.86.86,1.7,1.15,2.51.56,1.6,2.19,2.37,3.8,2.37h10.13c1.34,0,2.49-.07,3.45-.22.95-.14,1.62-.74,2.01-1.79.85-2.63-2.44-9.61-3.88-11.77-3.07-4.6-7.2-8.14-12.42-10.63-8.41-4.01-23.67-4.71-32.38-1-4.98,2.01-9.07,4.65-12.28,7.9-11.26,11.43-12.99,31.33-7.82,45.95,2.81,8.83,10.5,15.13,18.81,18.67,7.81,3.46,20.1,3.58,28.14,1.15,8.62-2.87,14.88-7.99,18.81-15.36,1.24-2.49,2.3-5.31,3.16-8.47.19-.77.21-1.51.07-2.23-.15-.72-.45-1.26-.93-1.65Z"/>
  </g>
</svg>